<svg width="13" height="13" viewBox="0 0 13 13" fill="none" xmlns="http://www.w3.org/2000/svg">
<path d="M11.6538 6.36055C11.6105 4.92209 11.0867 3.7007 10.0824 2.69637C9.0781 1.69204 7.8567 1.16824 6.41824 1.12497V0C7.29324 0.0192322 8.11247 0.198559 8.87592 0.537981C9.63938 0.877403 10.3062 1.33221 10.8764 1.9024C11.4466 2.47259 11.9014 3.13941 12.2408 3.90287C12.5802 4.66633 12.7596 5.48555 12.7788 6.36055H11.6538V6.36055M8.65382 6.36055C8.61055 5.75959 8.37737 5.24637 7.9543 4.82089C7.53122 4.39541 7.0192 4.16344 6.41824 4.12497V3C7.33074 3.03846 8.10813 3.38005 8.75043 4.02475C9.39273 4.66946 9.73552 5.44806 9.77879 6.36055H8.65382V6.36055M11.9552 12.9375C10.5418 12.9375 9.12184 12.6089 7.6954 11.9516C6.26897 11.2944 4.9572 10.3673 3.76008 9.17016C2.56778 7.97305 1.64302 6.66248 0.985815 5.23845C0.328605 3.81442 0 2.39568 0 0.982226C0 0.757226 0.075 0.568524 0.225 0.41612C0.375 0.263716 0.5625 0.187514 0.7875 0.187514H3.23361C3.42303 0.187514 3.5901 0.249293 3.73481 0.372851C3.87953 0.496409 3.9716 0.649054 4.01102 0.830786L4.44082 3.03749C4.47063 3.24229 4.46438 3.41826 4.42207 3.56537C4.37976 3.71249 4.3038 3.83605 4.19419 3.93605L2.46198 5.62209C2.74083 6.13267 3.05934 6.61561 3.41751 7.0709C3.77569 7.52619 4.16343 7.96105 4.58074 8.37547C4.99228 8.78701 5.42978 9.16922 5.89324 9.52211C6.35671 9.875 6.85719 10.2034 7.3947 10.5072L9.07787 8.80962C9.19517 8.6875 9.33724 8.60193 9.50407 8.55289C9.67089 8.50385 9.84421 8.49183 10.024 8.51683L12.1067 8.94086C12.2961 8.99086 12.4507 9.0875 12.5704 9.23077C12.6901 9.37404 12.7499 9.53654 12.7499 9.71827V12.15C12.7499 12.375 12.6737 12.5625 12.5213 12.7125C12.3689 12.8625 12.1802 12.9375 11.9552 12.9375V12.9375M1.92978 4.5577L3.26825 3.27692C3.29229 3.25769 3.30792 3.23125 3.31513 3.19759C3.32234 3.16393 3.32114 3.13268 3.31152 3.10383L2.98556 1.42788C2.97595 1.38941 2.95912 1.36057 2.93508 1.34133C2.91104 1.3221 2.87979 1.31249 2.84132 1.31249H1.23748C1.20863 1.31249 1.18459 1.3221 1.16536 1.34133C1.14613 1.36057 1.13651 1.38461 1.13651 1.41346C1.17497 1.92596 1.25886 2.44663 1.38819 2.97548C1.51752 3.50433 1.69805 4.03173 1.92978 4.5577V4.5577M8.45477 11.0394C8.95189 11.2711 9.4704 11.4483 10.0103 11.5709C10.5502 11.6935 11.0548 11.7663 11.524 11.7894C11.5529 11.7894 11.5769 11.7798 11.5961 11.7606C11.6154 11.7413 11.625 11.7173 11.625 11.6884V10.1106C11.625 10.0721 11.6154 10.0408 11.5961 10.0168C11.5769 9.99277 11.548 9.97594 11.5096 9.96632L9.93459 9.64613C9.90574 9.63652 9.8805 9.63531 9.85887 9.64252C9.83723 9.64974 9.81439 9.66536 9.79035 9.6894L8.45477 11.0394V11.0394M1.92978 4.5577V4.5577V4.5577V4.5577V4.5577V4.5577V4.5577V4.5577V4.5577V4.5577V4.5577V4.5577V4.5577M8.45477 11.0394V11.0394V11.0394V11.0394V11.0394V11.0394V11.0394V11.0394V11.0394V11.0394V11.0394V11.0394V11.0394" fill="#E2E2EA"/>
</svg>
