<?xml version="1.0" standalone="no"?>
<!DOCTYPE svg PUBLIC "-//W3C//DTD SVG 20010904//EN"
 "http://www.w3.org/TR/2001/REC-SVG-20010904/DTD/svg10.dtd">
<svg version="1.0" xmlns="http://www.w3.org/2000/svg"
 width="347.000000pt" height="144.000000pt" viewBox="0 0 347.000000 144.000000"
 preserveAspectRatio="xMidYMid meet">
<metadata>
Created by potrace 1.16, written by Peter Selinger 2001-2019
</metadata>
<g transform="translate(0.000000,144.000000) scale(0.100000,-0.100000)"
fill="#ffffff" stroke="none">
<path d="M495 1380 c-177 -32 -311 -125 -373 -258 -23 -49 -27 -70 -27 -147 0
-111 25 -173 95 -239 76 -71 137 -97 377 -162 76 -20 154 -45 175 -55 78 -39
101 -113 52 -162 -43 -44 -102 -60 -196 -55 -103 6 -196 41 -291 109 -37 27
-70 49 -72 49 -7 0 -165 -201 -165 -209 0 -27 153 -133 238 -165 123 -46 191
-59 312 -59 189 -1 337 50 438 152 92 92 128 210 102 337 -15 75 -46 128 -107
185 -68 63 -158 104 -333 149 -167 43 -215 63 -244 102 -44 61 13 139 110 154
84 12 214 -29 335 -107 25 -16 50 -29 56 -29 8 0 133 147 168 197 25 36 -152
150 -300 194 -80 23 -270 33 -350 19z"/>
<path d="M1680 1384 c-200 -35 -387 -141 -484 -273 -51 -69 -99 -171 -121
-254 l-18 -67 55 -58 c30 -31 64 -78 76 -104 46 -104 52 -230 17 -315 l-16
-38 63 -60 c75 -72 172 -124 293 -160 73 -22 111 -27 205 -28 130 0 201 12
312 55 78 30 200 104 251 152 l27 27 0 268 0 269 -27 6 c-14 4 -145 6 -290 5
l-263 -2 0 -129 0 -128 130 0 130 0 0 -85 0 -85 -32 -20 c-95 -58 -256 -72
-362 -30 -216 84 -294 376 -156 588 43 67 96 112 175 148 134 61 281 35 440
-80 l50 -36 20 24 c11 13 56 63 100 111 l80 88 -55 49 c-63 56 -163 109 -265
139 -68 20 -274 34 -335 23z"/>
<path d="M2680 1375 c-106 -24 -221 -86 -279 -152 -65 -73 -92 -143 -93 -240
0 -210 121 -318 457 -404 88 -23 182 -53 208 -67 144 -77 67 -212 -121 -212
-112 0 -251 53 -331 125 -21 19 -41 35 -44 35 -4 0 -25 -23 -47 -51 -38 -48
-40 -54 -40 -119 0 -60 -3 -71 -22 -84 -22 -16 -22 -16 -3 -31 41 -33 203
-106 280 -126 116 -30 292 -31 398 -1 154 44 254 117 307 226 68 138 47 294
-55 404 -78 85 -195 140 -385 182 -163 35 -230 76 -230 140 0 95 146 137 290
83 46 -17 162 -84 191 -109 14 -13 21 -9 60 33 92 100 141 163 136 176 -9 23
-128 108 -192 137 -33 15 -89 35 -125 44 -90 24 -277 30 -360 11z"/>
</g>
</svg>
