<svg width="25" height="25" viewBox="0 0 25 25" fill="none" xmlns="http://www.w3.org/2000/svg">
<path d="M18.4211 25C16.6009 25 15.0493 24.4196 13.7664 23.2589C12.4836 22.0982 11.8421 20.6944 11.8421 19.0476C11.8421 17.4008 12.4836 15.997 13.7664 14.8363C15.0493 13.6756 16.6009 13.0952 18.4211 13.0952C20.2412 13.0952 21.7928 13.6756 23.0757 14.8363C24.3586 15.997 25 17.4008 25 19.0476C25 20.6944 24.3586 22.0982 23.0757 23.2589C21.7928 24.4196 20.2412 25 18.4211 25ZM20.625 21.875L21.5461 21.0417L19.0789 18.8095V15.4762H17.7632V19.2857L20.625 21.875ZM2.63158 23.8095C1.90789 23.8095 1.28838 23.5764 0.773026 23.1101C0.257675 22.6438 0 22.0833 0 21.4286V4.7619C0 4.10714 0.257675 3.54663 0.773026 3.08036C1.28838 2.61409 1.90789 2.38095 2.63158 2.38095H8.125C8.36623 1.68651 8.83772 1.11607 9.53947 0.669643C10.2412 0.223214 11.0088 0 11.8421 0C12.7193 0 13.5033 0.223214 14.1941 0.669643C14.8849 1.11607 15.3509 1.68651 15.5921 2.38095H21.0526C21.7763 2.38095 22.3958 2.61409 22.9112 3.08036C23.4265 3.54663 23.6842 4.10714 23.6842 4.7619V12.2024C23.2895 11.9444 22.8728 11.7262 22.4342 11.5476C21.9956 11.369 21.5351 11.2103 21.0526 11.0714V4.7619H18.4211V8.33333H5.26316V4.7619H2.63158V21.4286H9.60526C9.75877 21.8651 9.93421 22.2817 10.1316 22.6786C10.3289 23.0754 10.5702 23.4524 10.8553 23.8095H2.63158ZM11.8421 4.7619C12.2149 4.7619 12.5274 4.64782 12.7796 4.41964C13.0318 4.19147 13.1579 3.90873 13.1579 3.57143C13.1579 3.23413 13.0318 2.95139 12.7796 2.72321C12.5274 2.49504 12.2149 2.38095 11.8421 2.38095C11.4693 2.38095 11.1568 2.49504 10.9046 2.72321C10.6524 2.95139 10.5263 3.23413 10.5263 3.57143C10.5263 3.90873 10.6524 4.19147 10.9046 4.41964C11.1568 4.64782 11.4693 4.7619 11.8421 4.7619Z" fill="#F2C94C"/>
</svg>
