<svg width="19" height="24" viewBox="0 0 19 24" fill="none" xmlns="http://www.w3.org/2000/svg">
<path d="M8.43748 19.8557H10.3124V14.3124L12.625 16.6249L13.9422 15.2884L9.37495 10.7211L4.80768 15.2884L6.14418 16.6057L8.43748 14.3124V19.8557ZM2.2596 23.7499C1.62819 23.7499 1.09374 23.5312 0.656244 23.0937C0.218748 22.6562 0 22.1217 0 21.4903V2.2596C0 1.62819 0.218748 1.09374 0.656244 0.656244C1.09374 0.218748 1.62819 0 2.2596 0H12.1875L18.7499 6.56243V21.4903C18.7499 22.1217 18.5312 22.6562 18.0937 23.0937C17.6562 23.5312 17.1217 23.7499 16.4903 23.7499H2.2596ZM11.25 7.49991V1.87495H2.2596C2.16344 1.87495 2.07529 1.91502 1.99516 1.99516C1.91502 2.07529 1.87495 2.16344 1.87495 2.2596V21.4903C1.87495 21.5865 1.91502 21.6746 1.99516 21.7548C2.07529 21.8349 2.16344 21.875 2.2596 21.875H16.4903C16.5865 21.875 16.6746 21.8349 16.7548 21.7548C16.8349 21.6746 16.875 21.5865 16.875 21.4903V7.49991H11.25ZM1.87495 1.87495V7.49991V1.87495V7.49991V21.4903C1.87495 21.5865 1.87495 21.6746 1.87495 21.7548C1.87495 21.8349 1.87495 21.875 1.87495 21.875C1.87495 21.875 1.87495 21.8349 1.87495 21.7548C1.87495 21.6746 1.87495 21.5865 1.87495 21.4903V2.2596C1.87495 2.16344 1.87495 2.07529 1.87495 1.99516C1.87495 1.91502 1.87495 1.87495 1.87495 1.87495Z" fill="#E2E2EA"/>
</svg>
